<svg xmlns="http://www.w3.org/2000/svg" width="800" height="200" viewBox="0 0 800 200">
  <defs>
    <style>
      @import url('https://fonts.googleapis.com/css2?family=Share+Tech+Mono&amp;family=Orbitron:wght@900&amp;display=swap');

      .bg { fill: #0d0d0d; }

      .col text {
        font-family: 'Share Tech Mono', 'Courier New', monospace;
        font-size: 13px;
        fill: #00FF41;
      }

      /* === COLUMN ANIMATIONS === */
      @keyframes fall0  { 0%{transform:translateY(-220px)} 100%{transform:translateY(220px)} }
      @keyframes fall1  { 0%{transform:translateY(-220px)} 100%{transform:translateY(220px)} }
      @keyframes fall2  { 0%{transform:translateY(-220px)} 100%{transform:translateY(220px)} }
      @keyframes fall3  { 0%{transform:translateY(-220px)} 100%{transform:translateY(220px)} }
      @keyframes fall4  { 0%{transform:translateY(-220px)} 100%{transform:translateY(220px)} }
      @keyframes fall5  { 0%{transform:translateY(-220px)} 100%{transform:translateY(220px)} }
      @keyframes fall6  { 0%{transform:translateY(-220px)} 100%{transform:translateY(220px)} }
      @keyframes fall7  { 0%{transform:translateY(-220px)} 100%{transform:translateY(220px)} }
      @keyframes fall8  { 0%{transform:translateY(-220px)} 100%{transform:translateY(220px)} }
      @keyframes fall9  { 0%{transform:translateY(-220px)} 100%{transform:translateY(220px)} }
      @keyframes fall10 { 0%{transform:translateY(-220px)} 100%{transform:translateY(220px)} }
      @keyframes fall11 { 0%{transform:translateY(-220px)} 100%{transform:translateY(220px)} }
      @keyframes fall12 { 0%{transform:translateY(-220px)} 100%{transform:translateY(220px)} }
      @keyframes fall13 { 0%{transform:translateY(-220px)} 100%{transform:translateY(220px)} }
      @keyframes fall14 { 0%{transform:translateY(-220px)} 100%{transform:translateY(220px)} }
      @keyframes fall15 { 0%{transform:translateY(-220px)} 100%{transform:translateY(220px)} }
      @keyframes fall16 { 0%{transform:translateY(-220px)} 100%{transform:translateY(220px)} }
      @keyframes fall17 { 0%{transform:translateY(-220px)} 100%{transform:translateY(220px)} }
      @keyframes fall18 { 0%{transform:translateY(-220px)} 100%{transform:translateY(220px)} }
      @keyframes fall19 { 0%{transform:translateY(-220px)} 100%{transform:translateY(220px)} }
      @keyframes fall20 { 0%{transform:translateY(-220px)} 100%{transform:translateY(220px)} }
      @keyframes fall21 { 0%{transform:translateY(-220px)} 100%{transform:translateY(220px)} }
      @keyframes fall22 { 0%{transform:translateY(-220px)} 100%{transform:translateY(220px)} }
      @keyframes fall23 { 0%{transform:translateY(-220px)} 100%{transform:translateY(220px)} }
      @keyframes fall24 { 0%{transform:translateY(-220px)} 100%{transform:translateY(220px)} }
      @keyframes fall25 { 0%{transform:translateY(-220px)} 100%{transform:translateY(220px)} }
      @keyframes fall26 { 0%{transform:translateY(-220px)} 100%{transform:translateY(220px)} }
      @keyframes fall27 { 0%{transform:translateY(-220px)} 100%{transform:translateY(220px)} }
      @keyframes fall28 { 0%{transform:translateY(-220px)} 100%{transform:translateY(220px)} }
      @keyframes fall29 { 0%{transform:translateY(-220px)} 100%{transform:translateY(220px)} }
      @keyframes fall30 { 0%{transform:translateY(-220px)} 100%{transform:translateY(220px)} }
      @keyframes fall31 { 0%{transform:translateY(-220px)} 100%{transform:translateY(220px)} }
      @keyframes fall32 { 0%{transform:translateY(-220px)} 100%{transform:translateY(220px)} }
      @keyframes fall33 { 0%{transform:translateY(-220px)} 100%{transform:translateY(220px)} }
      @keyframes fall34 { 0%{transform:translateY(-220px)} 100%{transform:translateY(220px)} }
      @keyframes fall35 { 0%{transform:translateY(-220px)} 100%{transform:translateY(220px)} }
      @keyframes fall36 { 0%{transform:translateY(-220px)} 100%{transform:translateY(220px)} }
      @keyframes fall37 { 0%{transform:translateY(-220px)} 100%{transform:translateY(220px)} }
      @keyframes fall38 { 0%{transform:translateY(-220px)} 100%{transform:translateY(220px)} }
      @keyframes fall39 { 0%{transform:translateY(-220px)} 100%{transform:translateY(220px)} }
      @keyframes fall40 { 0%{transform:translateY(-220px)} 100%{transform:translateY(220px)} }
      @keyframes fall41 { 0%{transform:translateY(-220px)} 100%{transform:translateY(220px)} }
      @keyframes fall42 { 0%{transform:translateY(-220px)} 100%{transform:translateY(220px)} }
      @keyframes fall43 { 0%{transform:translateY(-220px)} 100%{transform:translateY(220px)} }
      @keyframes fall44 { 0%{transform:translateY(-220px)} 100%{transform:translateY(220px)} }
      @keyframes fall45 { 0%{transform:translateY(-220px)} 100%{transform:translateY(220px)} }
      @keyframes fall46 { 0%{transform:translateY(-220px)} 100%{transform:translateY(220px)} }
      @keyframes fall47 { 0%{transform:translateY(-220px)} 100%{transform:translateY(220px)} }
      @keyframes fall48 { 0%{transform:translateY(-220px)} 100%{transform:translateY(220px)} }
      @keyframes fall49 { 0%{transform:translateY(-220px)} 100%{transform:translateY(220px)} }

      .c0  { animation: fall0  2.1s linear -0.3s infinite; opacity:0.7; }
      .c1  { animation: fall1  1.7s linear -1.1s infinite; opacity:0.5; }
      .c2  { animation: fall2  2.5s linear -0.7s infinite; opacity:0.8; }
      .c3  { animation: fall3  1.9s linear -0.2s infinite; opacity:0.4; }
      .c4  { animation: fall4  2.3s linear -1.4s infinite; opacity:0.6; }
      .c5  { animation: fall5  1.6s linear -0.9s infinite; opacity:0.7; }
      .c6  { animation: fall6  2.8s linear -0.5s infinite; opacity:0.5; }
      .c7  { animation: fall7  2.0s linear -1.7s infinite; opacity:0.9; }
      .c8  { animation: fall8  1.8s linear -0.4s infinite; opacity:0.6; }
      .c9  { animation: fall9  2.4s linear -1.2s infinite; opacity:0.4; }
      .c10 { animation: fall10 2.2s linear -0.8s infinite; opacity:0.7; }
      .c11 { animation: fall11 1.5s linear -0.1s infinite; opacity:0.5; }
      .c12 { animation: fall12 2.9s linear -1.6s infinite; opacity:0.8; }
      .c13 { animation: fall13 1.7s linear -0.6s infinite; opacity:0.4; }
      .c14 { animation: fall14 2.1s linear -1.0s infinite; opacity:0.6; }
      .c15 { animation: fall15 2.6s linear -0.3s infinite; opacity:0.9; }
      .c16 { animation: fall16 1.9s linear -1.5s infinite; opacity:0.5; }
      .c17 { animation: fall17 2.3s linear -0.7s infinite; opacity:0.7; }
      .c18 { animation: fall18 1.6s linear -1.3s infinite; opacity:0.4; }
      .c19 { animation: fall19 2.7s linear -0.2s infinite; opacity:0.6; }
      .c20 { animation: fall20 2.0s linear -1.8s infinite; opacity:0.8; }
      .c21 { animation: fall21 1.8s linear -0.5s infinite; opacity:0.5; }
      .c22 { animation: fall22 2.4s linear -1.1s infinite; opacity:0.7; }
      .c23 { animation: fall23 2.2s linear -0.4s infinite; opacity:0.4; }
      .c24 { animation: fall24 1.5s linear -1.9s infinite; opacity:0.9; }
      .c25 { animation: fall25 2.8s linear -0.6s infinite; opacity:0.5; }
      .c26 { animation: fall26 1.7s linear -1.4s infinite; opacity:0.6; }
      .c27 { animation: fall27 2.5s linear -0.8s infinite; opacity:0.7; }
      .c28 { animation: fall28 1.9s linear -0.1s infinite; opacity:0.4; }
      .c29 { animation: fall29 2.1s linear -1.6s infinite; opacity:0.8; }
      .c30 { animation: fall30 2.3s linear -0.9s infinite; opacity:0.6; }
      .c31 { animation: fall31 1.6s linear -1.2s infinite; opacity:0.5; }
      .c32 { animation: fall32 2.7s linear -0.3s infinite; opacity:0.7; }
      .c33 { animation: fall33 2.0s linear -1.7s infinite; opacity:0.4; }
      .c34 { animation: fall34 1.8s linear -0.5s infinite; opacity:0.9; }
      .c35 { animation: fall35 2.4s linear -1.0s infinite; opacity:0.5; }
      .c36 { animation: fall36 2.6s linear -1.3s infinite; opacity:0.6; }
      .c37 { animation: fall37 1.5s linear -0.7s infinite; opacity:0.7; }
      .c38 { animation: fall38 2.2s linear -1.5s infinite; opacity:0.4; }
      .c39 { animation: fall39 1.9s linear -0.2s infinite; opacity:0.8; }
      .c40 { animation: fall40 2.1s linear -1.8s infinite; opacity:0.5; }
      .c41 { animation: fall41 2.5s linear -0.4s infinite; opacity:0.6; }
      .c42 { animation: fall42 1.7s linear -1.1s infinite; opacity:0.7; }
      .c43 { animation: fall43 2.3s linear -0.6s infinite; opacity:0.4; }
      .c44 { animation: fall44 1.6s linear -1.4s infinite; opacity:0.9; }
      .c45 { animation: fall45 2.8s linear -0.8s infinite; opacity:0.5; }
      .c46 { animation: fall46 2.0s linear -1.6s infinite; opacity:0.7; }
      .c47 { animation: fall47 1.8s linear -0.3s infinite; opacity:0.4; }
      .c48 { animation: fall48 2.6s linear -1.2s infinite; opacity:0.6; }
      .c49 { animation: fall49 2.2s linear -0.9s infinite; opacity:0.8; }

      /* Glitch name */
      @keyframes glitch {
        0%,89%,100% { transform:translate(0); }
        90% { transform:translate(-2px,1px); }
        92% { transform:translate(2px,-1px); }
        94% { transform:translate(-1px,2px); }
        96% { transform:translate(1px,-2px); }
        98% { transform:translate(0); }
      }
      @keyframes glitchR {
        0%,89%,100% { transform:translate(0); opacity:0; }
        90% { transform:translate(3px,0); opacity:0.6; }
        94% { transform:translate(-3px,0); opacity:0.6; }
        98% { opacity:0; }
      }
      @keyframes glitchB {
        0%,89%,100% { transform:translate(0); opacity:0; }
        91% { transform:translate(-3px,0); opacity:0.5; }
        95% { transform:translate(3px,0); opacity:0.5; }
        98% { opacity:0; }
      }
      @keyframes pulse {
        0%,100% { opacity:1; }
        50%      { opacity:0.6; }
      }
      @keyframes scanline {
        0%   { transform: translateY(-10px); opacity:0; }
        10%  { opacity:0.4; }
        90%  { opacity:0.4; }
        100% { transform: translateY(210px); opacity:0; }
      }
      @keyframes borderPulse {
        0%,100% { opacity:0.3; }
        50%     { opacity:0.8; }
      }

      .name-main { animation: glitch 5s infinite; }
      .name-r    { animation: glitchR 5s infinite; }
      .name-b    { animation: glitchB 5s infinite; }
      .subtitle  { animation: pulse 3s ease-in-out infinite; }
      .scanline  { animation: scanline 3s linear infinite; }
      .border    { animation: borderPulse 2s ease-in-out infinite; }
    </style>

    <clipPath id="clip">
      <rect width="800" height="200"/>
    </clipPath>
    <filter id="glow">
      <feGaussianBlur stdDeviation="3" result="blur"/>
      <feMerge><feMergeNode in="blur"/><feMergeNode in="SourceGraphic"/></feMerge>
    </filter>
  </defs>

  <!-- Background -->
  <rect class="bg" width="800" height="200"/>

  <!-- Matrix columns -->
  <g clip-path="url(#clip)" font-family="'Share Tech Mono', monospace" font-size="13" fill="#00FF41">
    <g class="col c0" ><text x="4"  >0</text><text x="4"  y="16">1</text><text x="4"  y="32">0</text><text x="4"  y="48">0</text><text x="4"  y="64">1</text><text x="4"  y="80">1</text><text x="4"  y="96">0</text><text x="4"  y="112">1</text><text x="4"  y="128">0</text><text x="4"  y="144">1</text><text x="4"  y="160">0</text><text x="4"  y="176">1</text><text x="4"  y="192">0</text></g>
    <g class="col c1" ><text x="20" >1</text><text x="20" y="16">0</text><text x="20" y="32">1</text><text x="20" y="48">1</text><text x="20" y="64">0</text><text x="20" y="80">0</text><text x="20" y="96">1</text><text x="20" y="112">0</text><text x="20" y="128">1</text><text x="20" y="144">0</text><text x="20" y="160">1</text><text x="20" y="176">0</text><text x="20" y="192">1</text></g>
    <g class="col c2" ><text x="36" >0</text><text x="36" y="16">0</text><text x="36" y="32">1</text><text x="36" y="48">0</text><text x="36" y="64">1</text><text x="36" y="80">0</text><text x="36" y="96">0</text><text x="36" y="112">1</text><text x="36" y="128">1</text><text x="36" y="144">0</text><text x="36" y="160">0</text><text x="36" y="176">1</text><text x="36" y="192">0</text></g>
    <g class="col c3" ><text x="52" >1</text><text x="52" y="16">1</text><text x="52" y="32">0</text><text x="52" y="48">1</text><text x="52" y="64">0</text><text x="52" y="80">1</text><text x="52" y="96">1</text><text x="52" y="112">0</text><text x="52" y="128">0</text><text x="52" y="144">1</text><text x="52" y="160">1</text><text x="52" y="176">0</text><text x="52" y="192">1</text></g>
    <g class="col c4" ><text x="68" >0</text><text x="68" y="16">1</text><text x="68" y="32">0</text><text x="68" y="48">0</text><text x="68" y="64">1</text><text x="68" y="80">0</text><text x="68" y="96">1</text><text x="68" y="112">1</text><text x="68" y="128">0</text><text x="68" y="144">1</text><text x="68" y="160">0</text><text x="68" y="176">1</text><text x="68" y="192">1</text></g>
    <g class="col c5" ><text x="84" >1</text><text x="84" y="16">0</text><text x="84" y="32">1</text><text x="84" y="48">1</text><text x="84" y="64">0</text><text x="84" y="80">1</text><text x="84" y="96">0</text><text x="84" y="112">0</text><text x="84" y="128">1</text><text x="84" y="144">0</text><text x="84" y="160">1</text><text x="84" y="176">1</text><text x="84" y="192">0</text></g>
    <g class="col c6" ><text x="100">0</text><text x="100" y="16">1</text><text x="100" y="32">0</text><text x="100" y="48">1</text><text x="100" y="64">1</text><text x="100" y="80">0</text><text x="100" y="96">1</text><text x="100" y="112">0</text><text x="100" y="128">1</text><text x="100" y="144">1</text><text x="100" y="160">0</text><text x="100" y="176">0</text><text x="100" y="192">1</text></g>
    <g class="col c7" ><text x="116">1</text><text x="116" y="16">0</text><text x="116" y="32">1</text><text x="116" y="48">0</text><text x="116" y="64">0</text><text x="116" y="80">1</text><text x="116" y="96">0</text><text x="116" y="112">1</text><text x="116" y="128">0</text><text x="116" y="144">0</text><text x="116" y="160">1</text><text x="116" y="176">1</text><text x="116" y="192">0</text></g>
    <g class="col c8" ><text x="132">0</text><text x="132" y="16">1</text><text x="132" y="32">0</text><text x="132" y="48">1</text><text x="132" y="64">0</text><text x="132" y="80">1</text><text x="132" y="96">1</text><text x="132" y="112">0</text><text x="132" y="128">1</text><text x="132" y="144">0</text><text x="132" y="160">1</text><text x="132" y="176">0</text><text x="132" y="192">1</text></g>
    <g class="col c9" ><text x="148">1</text><text x="148" y="16">1</text><text x="148" y="32">0</text><text x="148" y="48">0</text><text x="148" y="64">1</text><text x="148" y="80">0</text><text x="148" y="96">0</text><text x="148" y="112">1</text><text x="148" y="128">1</text><text x="148" y="144">0</text><text x="148" y="160">0</text><text x="148" y="176">1</text><text x="148" y="192">0</text></g>
    <g class="col c10"><text x="164">0</text><text x="164" y="16">0</text><text x="164" y="32">1</text><text x="164" y="48">1</text><text x="164" y="64">0</text><text x="164" y="80">1</text><text x="164" y="96">1</text><text x="164" y="112">0</text><text x="164" y="128">0</text><text x="164" y="144">1</text><text x="164" y="160">1</text><text x="164" y="176">0</text><text x="164" y="192">1</text></g>
    <g class="col c11"><text x="180">1</text><text x="180" y="16">0</text><text x="180" y="32">0</text><text x="180" y="48">1</text><text x="180" y="64">1</text><text x="180" y="80">0</text><text x="180" y="96">1</text><text x="180" y="112">1</text><text x="180" y="128">0</text><text x="180" y="144">1</text><text x="180" y="160">0</text><text x="180" y="176">1</text><text x="180" y="192">0</text></g>
    <g class="col c12"><text x="196">0</text><text x="196" y="16">1</text><text x="196" y="32">1</text><text x="196" y="48">0</text><text x="196" y="64">0</text><text x="196" y="80">1</text><text x="196" y="96">0</text><text x="196" y="112">1</text><text x="196" y="128">1</text><text x="196" y="144">0</text><text x="196" y="160">1</text><text x="196" y="176">0</text><text x="196" y="192">1</text></g>
    <g class="col c13"><text x="212">1</text><text x="212" y="16">0</text><text x="212" y="32">1</text><text x="212" y="48">1</text><text x="212" y="64">0</text><text x="212" y="80">0</text><text x="212" y="96">1</text><text x="212" y="112">0</text><text x="212" y="128">0</text><text x="212" y="144">1</text><text x="212" y="160">0</text><text x="212" y="176">1</text><text x="212" y="192">1</text></g>
    <g class="col c14"><text x="228">0</text><text x="228" y="16">1</text><text x="228" y="32">0</text><text x="228" y="48">0</text><text x="228" y="64">1</text><text x="228" y="80">1</text><text x="228" y="96">0</text><text x="228" y="112">1</text><text x="228" y="128">0</text><text x="228" y="144">1</text><text x="228" y="160">1</text><text x="228" y="176">0</text><text x="228" y="192">0</text></g>
    <g class="col c15"><text x="244">1</text><text x="244" y="16">1</text><text x="244" y="32">0</text><text x="244" y="48">1</text><text x="244" y="64">0</text><text x="244" y="80">1</text><text x="244" y="96">1</text><text x="244" y="112">0</text><text x="244" y="128">1</text><text x="244" y="144">0</text><text x="244" y="160">0</text><text x="244" y="176">1</text><text x="244" y="192">1</text></g>
    <g class="col c16"><text x="260">0</text><text x="260" y="16">0</text><text x="260" y="32">1</text><text x="260" y="48">0</text><text x="260" y="64">1</text><text x="260" y="80">0</text><text x="260" y="96">0</text><text x="260" y="112">1</text><text x="260" y="128">1</text><text x="260" y="144">0</text><text x="260" y="160">1</text><text x="260" y="176">0</text><text x="260" y="192">0</text></g>
    <g class="col c17"><text x="276">1</text><text x="276" y="16">0</text><text x="276" y="32">1</text><text x="276" y="48">1</text><text x="276" y="64">0</text><text x="276" y="80">1</text><text x="276" y="96">0</text><text x="276" y="112">0</text><text x="276" y="128">1</text><text x="276" y="144">1</text><text x="276" y="160">0</text><text x="276" y="176">1</text><text x="276" y="192">0</text></g>
    <g class="col c18"><text x="292">0</text><text x="292" y="16">1</text><text x="292" y="32">0</text><text x="292" y="48">0</text><text x="292" y="64">1</text><text x="292" y="80">0</text><text x="292" y="96">1</text><text x="292" y="112">1</text><text x="292" y="128">0</text><text x="292" y="144">0</text><text x="292" y="160">1</text><text x="292" y="176">0</text><text x="292" y="192">1</text></g>
    <g class="col c19"><text x="308">1</text><text x="308" y="16">0</text><text x="308" y="32">1</text><text x="308" y="48">0</text><text x="308" y="64">0</text><text x="308" y="80">1</text><text x="308" y="96">1</text><text x="308" y="112">0</text><text x="308" y="128">1</text><text x="308" y="144">0</text><text x="308" y="160">1</text><text x="308" y="176">1</text><text x="308" y="192">0</text></g>
    <g class="col c20"><text x="324">0</text><text x="324" y="16">1</text><text x="324" y="32">0</text><text x="324" y="48">1</text><text x="324" y="64">1</text><text x="324" y="80">0</text><text x="324" y="96">0</text><text x="324" y="112">1</text><text x="324" y="128">0</text><text x="324" y="144">1</text><text x="324" y="160">0</text><text x="324" y="176">0</text><text x="324" y="192">1</text></g>
    <g class="col c21"><text x="340">1</text><text x="340" y="16">0</text><text x="340" y="32">1</text><text x="340" y="48">0</text><text x="340" y="64">0</text><text x="340" y="80">1</text><text x="340" y="96">1</text><text x="340" y="112">0</text><text x="340" y="128">0</text><text x="340" y="144">1</text><text x="340" y="160">1</text><text x="340" y="176">0</text><text x="340" y="192">1</text></g>
    <g class="col c22"><text x="356">0</text><text x="356" y="16">1</text><text x="356" y="32">0</text><text x="356" y="48">1</text><text x="356" y="64">0</text><text x="356" y="80">0</text><text x="356" y="96">1</text><text x="356" y="112">1</text><text x="356" y="128">0</text><text x="356" y="144">0</text><text x="356" y="160">1</text><text x="356" y="176">1</text><text x="356" y="192">0</text></g>
    <g class="col c23"><text x="372">1</text><text x="372" y="16">1</text><text x="372" y="32">0</text><text x="372" y="48">0</text><text x="372" y="64">1</text><text x="372" y="80">1</text><text x="372" y="96">0</text><text x="372" y="112">1</text><text x="372" y="128">1</text><text x="372" y="144">0</text><text x="372" y="160">0</text><text x="372" y="176">1</text><text x="372" y="192">0</text></g>
    <g class="col c24"><text x="388">0</text><text x="388" y="16">0</text><text x="388" y="32">1</text><text x="388" y="48">1</text><text x="388" y="64">0</text><text x="388" y="80">0</text><text x="388" y="96">1</text><text x="388" y="112">0</text><text x="388" y="128">1</text><text x="388" y="144">1</text><text x="388" y="160">0</text><text x="388" y="176">0</text><text x="388" y="192">1</text></g>
    <g class="col c25"><text x="404">1</text><text x="404" y="16">0</text><text x="404" y="32">0</text><text x="404" y="48">1</text><text x="404" y="64">1</text><text x="404" y="80">0</text><text x="404" y="96">1</text><text x="404" y="112">0</text><text x="404" y="128">0</text><text x="404" y="144">1</text><text x="404" y="160">1</text><text x="404" y="176">0</text><text x="404" y="192">1</text></g>
    <g class="col c26"><text x="420">0</text><text x="420" y="16">1</text><text x="420" y="32">1</text><text x="420" y="48">0</text><text x="420" y="64">0</text><text x="420" y="80">1</text><text x="420" y="96">0</text><text x="420" y="112">1</text><text x="420" y="128">1</text><text x="420" y="144">0</text><text x="420" y="160">1</text><text x="420" y="176">1</text><text x="420" y="192">0</text></g>
    <g class="col c27"><text x="436">1</text><text x="436" y="16">0</text><text x="436" y="32">1</text><text x="436" y="48">1</text><text x="436" y="64">0</text><text x="436" y="80">1</text><text x="436" y="96">0</text><text x="436" y="112">0</text><text x="436" y="128">1</text><text x="436" y="144">1</text><text x="436" y="160">0</text><text x="436" y="176">0</text><text x="436" y="192">1</text></g>
    <g class="col c28"><text x="452">0</text><text x="452" y="16">1</text><text x="452" y="32">0</text><text x="452" y="48">0</text><text x="452" y="64">1</text><text x="452" y="80">0</text><text x="452" y="96">1</text><text x="452" y="112">1</text><text x="452" y="128">0</text><text x="452" y="144">0</text><text x="452" y="160">1</text><text x="452" y="176">0</text><text x="452" y="192">1</text></g>
    <g class="col c29"><text x="468">1</text><text x="468" y="16">1</text><text x="468" y="32">0</text><text x="468" y="48">1</text><text x="468" y="64">0</text><text x="468" y="80">1</text><text x="468" y="96">1</text><text x="468" y="112">0</text><text x="468" y="128">1</text><text x="468" y="144">0</text><text x="468" y="160">0</text><text x="468" y="176">1</text><text x="468" y="192">0</text></g>
    <g class="col c30"><text x="484">0</text><text x="484" y="16">0</text><text x="484" y="32">1</text><text x="484" y="48">0</text><text x="484" y="64">1</text><text x="484" y="80">0</text><text x="484" y="96">0</text><text x="484" y="112">1</text><text x="484" y="128">0</text><text x="484" y="144">1</text><text x="484" y="160">1</text><text x="484" y="176">0</text><text x="484" y="192">1</text></g>
    <g class="col c31"><text x="500">1</text><text x="500" y="16">0</text><text x="500" y="32">1</text><text x="500" y="48">1</text><text x="500" y="64">0</text><text x="500" y="80">1</text><text x="500" y="96">1</text><text x="500" y="112">0</text><text x="500" y="128">0</text><text x="500" y="144">1</text><text x="500" y="160">0</text><text x="500" y="176">1</text><text x="500" y="192">0</text></g>
    <g class="col c32"><text x="516">0</text><text x="516" y="16">1</text><text x="516" y="32">0</text><text x="516" y="48">1</text><text x="516" y="64">1</text><text x="516" y="80">0</text><text x="516" y="96">1</text><text x="516" y="112">0</text><text x="516" y="128">1</text><text x="516" y="144">0</text><text x="516" y="160">1</text><text x="516" y="176">0</text><text x="516" y="192">1</text></g>
    <g class="col c33"><text x="532">1</text><text x="532" y="16">0</text><text x="532" y="32">0</text><text x="532" y="48">0</text><text x="532" y="64">1</text><text x="532" y="80">1</text><text x="532" y="96">0</text><text x="532" y="112">1</text><text x="532" y="128">1</text><text x="532" y="144">0</text><text x="532" y="160">0</text><text x="532" y="176">1</text><text x="532" y="192">0</text></g>
    <g class="col c34"><text x="548">0</text><text x="548" y="16">1</text><text x="548" y="32">1</text><text x="548" y="48">0</text><text x="548" y="64">0</text><text x="548" y="80">1</text><text x="548" y="96">0</text><text x="548" y="112">1</text><text x="548" y="128">0</text><text x="548" y="144">1</text><text x="548" y="160">1</text><text x="548" y="176">0</text><text x="548" y="192">1</text></g>
    <g class="col c35"><text x="564">1</text><text x="564" y="16">0</text><text x="564" y="32">1</text><text x="564" y="48">1</text><text x="564" y="64">0</text><text x="564" y="80">0</text><text x="564" y="96">1</text><text x="564" y="112">0</text><text x="564" y="128">1</text><text x="564" y="144">0</text><text x="564" y="160">0</text><text x="564" y="176">1</text><text x="564" y="192">1</text></g>
    <g class="col c36"><text x="580">0</text><text x="580" y="16">1</text><text x="580" y="32">0</text><text x="580" y="48">0</text><text x="580" y="64">1</text><text x="580" y="80">1</text><text x="580" y="96">0</text><text x="580" y="112">1</text><text x="580" y="128">0</text><text x="580" y="144">1</text><text x="580" y="160">0</text><text x="580" y="176">1</text><text x="580" y="192">0</text></g>
    <g class="col c37"><text x="596">1</text><text x="596" y="16">1</text><text x="596" y="32">0</text><text x="596" y="48">1</text><text x="596" y="64">0</text><text x="596" y="80">1</text><text x="596" y="96">0</text><text x="596" y="112">0</text><text x="596" y="128">1</text><text x="596" y="144">0</text><text x="596" y="160">1</text><text x="596" y="176">0</text><text x="596" y="192">1</text></g>
    <g class="col c38"><text x="612">0</text><text x="612" y="16">0</text><text x="612" y="32">1</text><text x="612" y="48">0</text><text x="612" y="64">1</text><text x="612" y="80">0</text><text x="612" y="96">1</text><text x="612" y="112">1</text><text x="612" y="128">0</text><text x="612" y="144">1</text><text x="612" y="160">0</text><text x="612" y="176">1</text><text x="612" y="192">0</text></g>
    <g class="col c39"><text x="628">1</text><text x="628" y="16">0</text><text x="628" y="32">1</text><text x="628" y="48">1</text><text x="628" y="64">0</text><text x="628" y="80">1</text><text x="628" y="96">0</text><text x="628" y="112">1</text><text x="628" y="128">1</text><text x="628" y="144">0</text><text x="628" y="160">1</text><text x="628" y="176">0</text><text x="628" y="192">0</text></g>
    <g class="col c40"><text x="644">0</text><text x="644" y="16">1</text><text x="644" y="32">0</text><text x="644" y="48">0</text><text x="644" y="64">1</text><text x="644" y="80">0</text><text x="644" y="96">1</text><text x="644" y="112">0</text><text x="644" y="128">0</text><text x="644" y="144">1</text><text x="644" y="160">1</text><text x="644" y="176">0</text><text x="644" y="192">1</text></g>
    <g class="col c41"><text x="660">1</text><text x="660" y="16">0</text><text x="660" y="32">1</text><text x="660" y="48">1</text><text x="660" y="64">0</text><text x="660" y="80">1</text><text x="660" y="96">1</text><text x="660" y="112">0</text><text x="660" y="128">1</text><text x="660" y="144">0</text><text x="660" y="160">0</text><text x="660" y="176">1</text><text x="660" y="192">0</text></g>
    <g class="col c42"><text x="676">0</text><text x="676" y="16">1</text><text x="676" y="32">0</text><text x="676" y="48">1</text><text x="676" y="64">1</text><text x="676" y="80">0</text><text x="676" y="96">0</text><text x="676" y="112">1</text><text x="676" y="128">0</text><text x="676" y="144">1</text><text x="676" y="160">1</text><text x="676" y="176">0</text><text x="676" y="192">1</text></g>
    <g class="col c43"><text x="692">1</text><text x="692" y="16">0</text><text x="692" y="32">0</text><text x="692" y="48">0</text><text x="692" y="64">1</text><text x="692" y="80">1</text><text x="692" y="96">0</text><text x="692" y="112">1</text><text x="692" y="128">1</text><text x="692" y="144">0</text><text x="692" y="160">0</text><text x="692" y="176">1</text><text x="692" y="192">1</text></g>
    <g class="col c44"><text x="708">0</text><text x="708" y="16">1</text><text x="708" y="32">1</text><text x="708" y="48">0</text><text x="708" y="64">0</text><text x="708" y="80">1</text><text x="708" y="96">1</text><text x="708" y="112">0</text><text x="708" y="128">1</text><text x="708" y="144">0</text><text x="708" y="160">1</text><text x="708" y="176">0</text><text x="708" y="192">0</text></g>
    <g class="col c45"><text x="724">1</text><text x="724" y="16">0</text><text x="724" y="32">1</text><text x="724" y="48">1</text><text x="724" y="64">0</text><text x="724" y="80">0</text><text x="724" y="96">1</text><text x="724" y="112">0</text><text x="724" y="128">0</text><text x="724" y="144">1</text><text x="724" y="160">0</text><text x="724" y="176">1</text><text x="724" y="192">1</text></g>
    <g class="col c46"><text x="740">0</text><text x="740" y="16">1</text><text x="740" y="32">0</text><text x="740" y="48">1</text><text x="740" y="64">0</text><text x="740" y="80">1</text><text x="740" y="96">0</text><text x="740" y="112">1</text><text x="740" y="128">1</text><text x="740" y="144">0</text><text x="740" y="160">1</text><text x="740" y="176">0</text><text x="740" y="192">1</text></g>
    <g class="col c47"><text x="756">1</text><text x="756" y="16">1</text><text x="756" y="32">0</text><text x="756" y="48">0</text><text x="756" y="64">1</text><text x="756" y="80">0</text><text x="756" y="96">1</text><text x="756" y="112">0</text><text x="756" y="128">0</text><text x="756" y="144">1</text><text x="756" y="160">1</text><text x="756" y="176">0</text><text x="756" y="192">0</text></g>
    <g class="col c48"><text x="772">0</text><text x="772" y="16">0</text><text x="772" y="32">1</text><text x="772" y="48">1</text><text x="772" y="64">0</text><text x="772" y="80">1</text><text x="772" y="96">0</text><text x="772" y="112">1</text><text x="772" y="128">1</text><text x="772" y="144">0</text><text x="772" y="160">0</text><text x="772" y="176">1</text><text x="772" y="192">0</text></g>
    <g class="col c49"><text x="788">1</text><text x="788" y="16">0</text><text x="788" y="32">1</text><text x="788" y="48">0</text><text x="788" y="64">1</text><text x="788" y="80">0</text><text x="788" y="96">1</text><text x="788" y="112">0</text><text x="788" y="128">1</text><text x="788" y="144">0</text><text x="788" y="160">1</text><text x="788" y="176">0</text><text x="788" y="192">1</text></g>
  </g>

  <!-- Dark center overlay for readability -->
  <rect x="160" y="20" width="480" height="160" rx="4" fill="rgba(0,0,0,0.72)"/>
  <rect class="border" x="160" y="20" width="480" height="160" rx="4" fill="none" stroke="#00FF41" stroke-width="1"/>

  <!-- Scanline -->
  <rect class="scanline" x="160" y="0" width="480" height="3" fill="#00FF41" opacity="0" rx="1"/>

  <!-- Glitch name layers -->
  <text class="name-r" x="400" y="95" text-anchor="middle"
    font-family="'Orbitron', 'Share Tech Mono', monospace"
    font-size="54" font-weight="900" fill="#0ff" opacity="0"
    filter="url(#glow)">GUI</text>

  <text class="name-b" x="400" y="95" text-anchor="middle"
    font-family="'Orbitron', 'Share Tech Mono', monospace"
    font-size="54" font-weight="900" fill="#f0f" opacity="0"
    filter="url(#glow)">GUI</text>

  <text class="name-main" x="400" y="95" text-anchor="middle"
    font-family="'Orbitron', 'Share Tech Mono', monospace"
    font-size="54" font-weight="900" fill="#00FF41"
    filter="url(#glow)">GUI</text>

  <!-- Subtitle -->
  <text class="subtitle" x="400" y="128" text-anchor="middle"
    font-family="'Share Tech Mono', 'Courier New', monospace"
    font-size="12" fill="#00FF41" letter-spacing="6" opacity="0.75">
    CYBERSECURITY · BLUE TEAM · BRAZIL
  </text>

  <!-- Bottom line -->
  <line x1="200" y1="148" x2="600" y2="148" stroke="#00FF41" stroke-width="0.5" opacity="0.3"/>
  <text x="400" y="163" text-anchor="middle"
    font-family="'Share Tech Mono', monospace"
    font-size="9" fill="#00FF41" letter-spacing="3" opacity="0.4">
    01000111 01010101 01001001
  </text>
</svg>
